<mxfile host="app.diagrams.net" modified="2024-09-24T12:43:12.085Z" agent="Mozilla/5.0 (X11; Linux x86_64; rv:130.0) Gecko/20100101 Firefox/130.0" etag="6vTHLpfEbP4SMR5hBfC4" version="24.5.3" type="device">
  <diagram name="Page-1" id="pfIHT9fvH57XNG-zkXEE">
    <mxGraphModel dx="555" dy="597" grid="1" gridSize="10" guides="1" tooltips="1" connect="1" arrows="1" fold="1" page="1" pageScale="1" pageWidth="2339" pageHeight="3300" math="0" shadow="0">
      <root>
        <mxCell id="0" />
        <mxCell id="1" parent="0" />
        <mxCell id="DAV3zWYRSpCBQQoU37_1-1" value="system" style="shape=umlFrame;whiteSpace=wrap;html=1;pointerEvents=0;" parent="1" vertex="1">
          <mxGeometry x="680" y="350" width="410" height="690" as="geometry" />
        </mxCell>
        <mxCell id="KZXlQw-Vv7jt_mehEU9m-1" value="Operador" style="shape=umlActor;verticalLabelPosition=bottom;verticalAlign=top;html=1;" vertex="1" parent="1">
          <mxGeometry x="610" y="600" width="30" height="60" as="geometry" />
        </mxCell>
        <mxCell id="KZXlQw-Vv7jt_mehEU9m-2" value="Administrador" style="shape=umlActor;verticalLabelPosition=bottom;verticalAlign=top;html=1;" vertex="1" parent="1">
          <mxGeometry x="1130" y="580" width="30" height="60" as="geometry" />
        </mxCell>
        <mxCell id="KZXlQw-Vv7jt_mehEU9m-3" value="Efetuar Login" style="ellipse;whiteSpace=wrap;html=1;" vertex="1" parent="1">
          <mxGeometry x="815" y="400" width="140" height="70" as="geometry" />
        </mxCell>
        <mxCell id="KZXlQw-Vv7jt_mehEU9m-4" value="" style="endArrow=open;endFill=1;endSize=12;html=1;rounded=0;entryX=0;entryY=0.5;entryDx=0;entryDy=0;" edge="1" parent="1" source="KZXlQw-Vv7jt_mehEU9m-1" target="KZXlQw-Vv7jt_mehEU9m-3">
          <mxGeometry width="160" relative="1" as="geometry">
            <mxPoint x="800" y="610" as="sourcePoint" />
            <mxPoint x="960" y="610" as="targetPoint" />
          </mxGeometry>
        </mxCell>
        <mxCell id="KZXlQw-Vv7jt_mehEU9m-5" value="Inserir Informação (imagens e a sua categoria)" style="ellipse;whiteSpace=wrap;html=1;" vertex="1" parent="1">
          <mxGeometry x="815" y="480" width="140" height="70" as="geometry" />
        </mxCell>
        <mxCell id="KZXlQw-Vv7jt_mehEU9m-6" value="Utilizar o modelo treinado" style="ellipse;whiteSpace=wrap;html=1;" vertex="1" parent="1">
          <mxGeometry x="815" y="560" width="140" height="70" as="geometry" />
        </mxCell>
        <mxCell id="KZXlQw-Vv7jt_mehEU9m-7" value="Visualizar as fotos inseridas por categoria" style="ellipse;whiteSpace=wrap;html=1;" vertex="1" parent="1">
          <mxGeometry x="815" y="640" width="140" height="70" as="geometry" />
        </mxCell>
        <mxCell id="KZXlQw-Vv7jt_mehEU9m-8" value="" style="endArrow=open;endFill=1;endSize=12;html=1;rounded=0;entryX=0;entryY=0.5;entryDx=0;entryDy=0;" edge="1" parent="1" source="KZXlQw-Vv7jt_mehEU9m-1" target="KZXlQw-Vv7jt_mehEU9m-5">
          <mxGeometry width="160" relative="1" as="geometry">
            <mxPoint x="650" y="514" as="sourcePoint" />
            <mxPoint x="825" y="445" as="targetPoint" />
          </mxGeometry>
        </mxCell>
        <mxCell id="KZXlQw-Vv7jt_mehEU9m-9" value="" style="endArrow=open;endFill=1;endSize=12;html=1;rounded=0;entryX=0;entryY=0.5;entryDx=0;entryDy=0;" edge="1" parent="1" source="KZXlQw-Vv7jt_mehEU9m-1" target="KZXlQw-Vv7jt_mehEU9m-6">
          <mxGeometry width="160" relative="1" as="geometry">
            <mxPoint x="660" y="524" as="sourcePoint" />
            <mxPoint x="825" y="525" as="targetPoint" />
          </mxGeometry>
        </mxCell>
        <mxCell id="KZXlQw-Vv7jt_mehEU9m-10" value="" style="endArrow=open;endFill=1;endSize=12;html=1;rounded=0;entryX=0;entryY=0.5;entryDx=0;entryDy=0;" edge="1" parent="1" source="KZXlQw-Vv7jt_mehEU9m-1" target="KZXlQw-Vv7jt_mehEU9m-7">
          <mxGeometry width="160" relative="1" as="geometry">
            <mxPoint x="670" y="534" as="sourcePoint" />
            <mxPoint x="825" y="605" as="targetPoint" />
          </mxGeometry>
        </mxCell>
        <mxCell id="KZXlQw-Vv7jt_mehEU9m-12" value="" style="endArrow=open;endFill=1;endSize=12;html=1;rounded=0;entryX=1;entryY=0.5;entryDx=0;entryDy=0;" edge="1" parent="1" source="KZXlQw-Vv7jt_mehEU9m-2" target="KZXlQw-Vv7jt_mehEU9m-3">
          <mxGeometry width="160" relative="1" as="geometry">
            <mxPoint x="650" y="459" as="sourcePoint" />
            <mxPoint x="825" y="445" as="targetPoint" />
          </mxGeometry>
        </mxCell>
        <mxCell id="KZXlQw-Vv7jt_mehEU9m-13" value="" style="endArrow=open;endFill=1;endSize=12;html=1;rounded=0;entryX=1;entryY=0.5;entryDx=0;entryDy=0;" edge="1" parent="1" source="KZXlQw-Vv7jt_mehEU9m-2" target="KZXlQw-Vv7jt_mehEU9m-5">
          <mxGeometry width="160" relative="1" as="geometry">
            <mxPoint x="1130" y="459" as="sourcePoint" />
            <mxPoint x="965" y="445" as="targetPoint" />
          </mxGeometry>
        </mxCell>
        <mxCell id="KZXlQw-Vv7jt_mehEU9m-14" value="" style="endArrow=open;endFill=1;endSize=12;html=1;rounded=0;entryX=1;entryY=0.5;entryDx=0;entryDy=0;" edge="1" parent="1" source="KZXlQw-Vv7jt_mehEU9m-2" target="KZXlQw-Vv7jt_mehEU9m-6">
          <mxGeometry width="160" relative="1" as="geometry">
            <mxPoint x="1130" y="465" as="sourcePoint" />
            <mxPoint x="965" y="525" as="targetPoint" />
          </mxGeometry>
        </mxCell>
        <mxCell id="KZXlQw-Vv7jt_mehEU9m-15" value="" style="endArrow=open;endFill=1;endSize=12;html=1;rounded=0;entryX=1;entryY=0.5;entryDx=0;entryDy=0;" edge="1" parent="1" source="KZXlQw-Vv7jt_mehEU9m-2" target="KZXlQw-Vv7jt_mehEU9m-7">
          <mxGeometry width="160" relative="1" as="geometry">
            <mxPoint x="1130" y="472" as="sourcePoint" />
            <mxPoint x="965" y="610" as="targetPoint" />
          </mxGeometry>
        </mxCell>
        <mxCell id="KZXlQw-Vv7jt_mehEU9m-18" value="Pedir acesso para pode registar-se " style="ellipse;whiteSpace=wrap;html=1;" vertex="1" parent="1">
          <mxGeometry x="710" y="710" width="140" height="70" as="geometry" />
        </mxCell>
        <mxCell id="KZXlQw-Vv7jt_mehEU9m-19" value="" style="endArrow=open;endFill=1;endSize=12;html=1;rounded=0;entryX=0;entryY=0;entryDx=0;entryDy=0;" edge="1" parent="1" source="KZXlQw-Vv7jt_mehEU9m-1" target="KZXlQw-Vv7jt_mehEU9m-18">
          <mxGeometry width="160" relative="1" as="geometry">
            <mxPoint x="650" y="670" as="sourcePoint" />
            <mxPoint x="825" y="685" as="targetPoint" />
          </mxGeometry>
        </mxCell>
        <mxCell id="KZXlQw-Vv7jt_mehEU9m-20" value="Iniciar o processo de treinamento do modelo" style="ellipse;whiteSpace=wrap;html=1;" vertex="1" parent="1">
          <mxGeometry x="920" y="710" width="140" height="70" as="geometry" />
        </mxCell>
        <mxCell id="KZXlQw-Vv7jt_mehEU9m-21" value="" style="endArrow=open;endFill=1;endSize=12;html=1;rounded=0;" edge="1" parent="1" source="KZXlQw-Vv7jt_mehEU9m-2" target="KZXlQw-Vv7jt_mehEU9m-20">
          <mxGeometry width="160" relative="1" as="geometry">
            <mxPoint x="1120" y="690" as="sourcePoint" />
            <mxPoint x="965" y="685" as="targetPoint" />
          </mxGeometry>
        </mxCell>
        <mxCell id="KZXlQw-Vv7jt_mehEU9m-22" value="Gerir os operadores existentes na plataforma" style="ellipse;whiteSpace=wrap;html=1;" vertex="1" parent="1">
          <mxGeometry x="920" y="790" width="140" height="70" as="geometry" />
        </mxCell>
        <mxCell id="KZXlQw-Vv7jt_mehEU9m-23" value="" style="endArrow=open;endFill=1;endSize=12;html=1;rounded=0;entryX=0.957;entryY=0.284;entryDx=0;entryDy=0;entryPerimeter=0;" edge="1" parent="1" source="KZXlQw-Vv7jt_mehEU9m-2" target="KZXlQw-Vv7jt_mehEU9m-22">
          <mxGeometry width="160" relative="1" as="geometry">
            <mxPoint x="1140" y="710" as="sourcePoint" />
            <mxPoint x="1033" y="734" as="targetPoint" />
          </mxGeometry>
        </mxCell>
        <mxCell id="KZXlQw-Vv7jt_mehEU9m-24" value="Deixar feedback" style="ellipse;whiteSpace=wrap;html=1;" vertex="1" parent="1">
          <mxGeometry x="710" y="790" width="140" height="70" as="geometry" />
        </mxCell>
        <mxCell id="KZXlQw-Vv7jt_mehEU9m-25" value="" style="endArrow=open;endFill=1;endSize=12;html=1;rounded=0;entryX=0.053;entryY=0.215;entryDx=0;entryDy=0;entryPerimeter=0;" edge="1" parent="1" source="KZXlQw-Vv7jt_mehEU9m-1" target="KZXlQw-Vv7jt_mehEU9m-24">
          <mxGeometry width="160" relative="1" as="geometry">
            <mxPoint x="640" y="750" as="sourcePoint" />
            <mxPoint x="740" y="730" as="targetPoint" />
          </mxGeometry>
        </mxCell>
        <mxCell id="KZXlQw-Vv7jt_mehEU9m-26" value="Gerir as fotografias (editar / remover)" style="ellipse;whiteSpace=wrap;html=1;" vertex="1" parent="1">
          <mxGeometry x="920" y="870" width="140" height="70" as="geometry" />
        </mxCell>
        <mxCell id="KZXlQw-Vv7jt_mehEU9m-27" value="" style="endArrow=open;endFill=1;endSize=12;html=1;rounded=0;entryX=0.937;entryY=0.205;entryDx=0;entryDy=0;entryPerimeter=0;exitX=0.333;exitY=0.833;exitDx=0;exitDy=0;exitPerimeter=0;" edge="1" parent="1" source="KZXlQw-Vv7jt_mehEU9m-2" target="KZXlQw-Vv7jt_mehEU9m-26">
          <mxGeometry width="160" relative="1" as="geometry">
            <mxPoint x="1141" y="650" as="sourcePoint" />
            <mxPoint x="1064" y="820" as="targetPoint" />
          </mxGeometry>
        </mxCell>
      </root>
    </mxGraphModel>
  </diagram>
</mxfile>
